<svg xmlns="http://www.w3.org/2000/svg" xmlns:xlink="http://www.w3.org/1999/xlink" viewBox="0 0 720 567.49"><defs><style>.cls-1{isolation:isolate;}.cls-2,.cls-3{opacity:0.37;mix-blend-mode:darken;}.cls-2{fill:url(#Degradado_sin_nombre_2);}.cls-3{fill:url(#Degradado_sin_nombre_2-2);}.cls-4{fill:url(#Degradado_sin_nombre_10);}.cls-5{fill:url(#Degradado_sin_nombre_10-2);}.cls-6{fill:url(#Degradado_sin_nombre_59);}.cls-7{fill:url(#Degradado_sin_nombre_10-3);}.cls-8{fill:url(#Degradado_sin_nombre_59-2);}.cls-9{fill:url(#Degradado_sin_nombre_10-4);}.cls-10{fill:url(#Degradado_sin_nombre_8);}.cls-11{fill:url(#Degradado_sin_nombre_8-2);}.cls-12{fill:url(#Degradado_sin_nombre_88);}.cls-13{fill:url(#Degradado_sin_nombre_25);}.cls-14{fill:url(#Degradado_sin_nombre_59-3);}.cls-15{fill:url(#Degradado_sin_nombre_25-2);}.cls-16{fill:#111023;}.cls-17{fill:url(#Degradado_sin_nombre_59-4);}.cls-18{fill:url(#Degradado_sin_nombre_86);}.cls-19{fill:#5b2b89;}.cls-20{fill:url(#Degradado_sin_nombre_12);}.cls-21{fill:url(#Degradado_sin_nombre_7);}.cls-22{fill:url(#Degradado_sin_nombre_12-2);}.cls-23{fill:url(#Degradado_sin_nombre_7-2);}.cls-24{fill:url(#Degradado_sin_nombre_86-2);}.cls-25{opacity:0.38;mix-blend-mode:overlay;fill:url(#Degradado_sin_nombre_5);}.cls-26{fill:url(#Degradado_sin_nombre_86-3);}.cls-27{fill:#f79244;}.cls-28{fill:#fff;}.cls-29{opacity:0.5;mix-blend-mode:multiply;fill:url(#Degradado_sin_nombre_3);}.cls-30{fill:url(#Degradado_sin_nombre_3-2);}.cls-31{fill:url(#Degradado_sin_nombre_3-3);}.cls-32{fill:#d6e3eb;}.cls-33{fill:url(#Degradado_sin_nombre_59-5);}.cls-34{fill:url(#Degradado_sin_nombre_10-5);}.cls-35{fill:#2a2a2a;}.cls-36{fill:url(#Degradado_sin_nombre_4);}</style><linearGradient id="Degradado_sin_nombre_2" x1="347.51" y1="481.3" x2="370.11" y2="140.08" gradientUnits="userSpaceOnUse"><stop offset="0" stop-color="#7eced7"/><stop offset="0.41" stop-color="#80ceda"/><stop offset="0.67" stop-color="#89cce2"/><stop offset="0.9" stop-color="#96caf1"/><stop offset="1" stop-color="#9fc8fb"/></linearGradient><linearGradient id="Degradado_sin_nombre_2-2" x1="365.88" y1="481.3" x2="388.48" y2="140.08" xlink:href="#Degradado_sin_nombre_2"/><linearGradient id="Degradado_sin_nombre_10" x1="139.06" y1="216.64" x2="139.06" y2="157.13" gradientUnits="userSpaceOnUse"><stop offset="0" stop-color="#f9e6d9"/><stop offset="0.12" stop-color="#fcf1ea"/><stop offset="0.27" stop-color="#fef9f6"/><stop offset="0.48" stop-color="#fffefd"/><stop offset="1" stop-color="#fff"/></linearGradient><linearGradient id="Degradado_sin_nombre_10-2" x1="547.03" y1="258.41" x2="550.8" y2="200.41" xlink:href="#Degradado_sin_nombre_10"/><linearGradient id="Degradado_sin_nombre_59" x1="110.55" y1="359.87" x2="268.56" y2="359.87" gradientUnits="userSpaceOnUse"><stop offset="0" stop-color="#31d1d6"/><stop offset="0.37" stop-color="#32ced8"/><stop offset="0.62" stop-color="#36c6df"/><stop offset="0.82" stop-color="#3cb7eb"/><stop offset="1" stop-color="#45a3fa"/></linearGradient><linearGradient id="Degradado_sin_nombre_10-3" x1="176.16" y1="475.14" x2="174.65" y2="398.31" xlink:href="#Degradado_sin_nombre_10"/><linearGradient id="Degradado_sin_nombre_59-2" x1="446.14" y1="383.6" x2="604.15" y2="383.6" gradientTransform="matrix(0.98, -0.19, 0.19, 0.98, -55.15, 98.01)" xlink:href="#Degradado_sin_nombre_59"/><linearGradient id="Degradado_sin_nombre_10-4" x1="528.12" y1="468.24" x2="526.61" y2="391.41" xlink:href="#Degradado_sin_nombre_10"/><linearGradient id="Degradado_sin_nombre_8" x1="211.11" y1="262.84" x2="255.8" y2="251.29" gradientUnits="userSpaceOnUse"><stop offset="0" stop-color="#4c8b20"/><stop offset="0.41" stop-color="#4a8e21"/><stop offset="0.67" stop-color="#459625"/><stop offset="0.9" stop-color="#3ba52c"/><stop offset="1" stop-color="#35af31"/></linearGradient><linearGradient id="Degradado_sin_nombre_8-2" x1="122.4" y1="220.39" x2="221.89" y2="220.39" xlink:href="#Degradado_sin_nombre_8"/><linearGradient id="Degradado_sin_nombre_88" x1="53.12" y1="22.51" x2="126.27" y2="22.51" gradientUnits="userSpaceOnUse"><stop offset="0" stop-color="#51adc6"/><stop offset="0.01" stop-color="#55afc4"/><stop offset="0.07" stop-color="#74bfb5"/><stop offset="0.13" stop-color="#8fcda7"/><stop offset="0.21" stop-color="#a5d89d"/><stop offset="0.3" stop-color="#b6e194"/><stop offset="0.41" stop-color="#c1e78e"/><stop offset="0.57" stop-color="#c8ea8b"/><stop offset="1" stop-color="#caeb8a"/></linearGradient><linearGradient id="Degradado_sin_nombre_25" x1="57.19" y1="14.06" x2="45.35" y2="14.06" gradientUnits="userSpaceOnUse"><stop offset="0" stop-color="#8aebd6"/><stop offset="0.46" stop-color="#89e9d7"/><stop offset="0.63" stop-color="#84e2da"/><stop offset="0.75" stop-color="#7dd7de"/><stop offset="0.84" stop-color="#72c6e5"/><stop offset="0.92" stop-color="#64b0ee"/><stop offset="0.99" stop-color="#5395f9"/><stop offset="1" stop-color="#5193fa"/></linearGradient><linearGradient id="Degradado_sin_nombre_59-3" x1="59.36" y1="21.14" x2="45.29" y2="21.14" xlink:href="#Degradado_sin_nombre_59"/><linearGradient id="Degradado_sin_nombre_25-2" x1="59.38" y1="29.31" x2="46.45" y2="29.31" xlink:href="#Degradado_sin_nombre_25"/><linearGradient id="Degradado_sin_nombre_59-4" x1="126.27" y1="21.8" x2="169.29" y2="21.8" xlink:href="#Degradado_sin_nombre_59"/><linearGradient id="Degradado_sin_nombre_86" x1="107.46" y1="35.26" x2="127.97" y2="35.26" gradientUnits="userSpaceOnUse"><stop offset="0" stop-color="#f7be86"/><stop offset="0.33" stop-color="#f7bc83"/><stop offset="0.54" stop-color="#f7b67b"/><stop offset="0.73" stop-color="#f7ac6c"/><stop offset="0.89" stop-color="#f79e57"/><stop offset="1" stop-color="#f79244"/></linearGradient><linearGradient id="Degradado_sin_nombre_12" x1="228.63" y1="50.94" x2="227.95" y2="75.61" gradientUnits="userSpaceOnUse"><stop offset="0" stop-color="#7b6ed6"/><stop offset="0.48" stop-color="#796dd5"/><stop offset="0.65" stop-color="#7268d0"/><stop offset="0.78" stop-color="#6760c9"/><stop offset="0.88" stop-color="#5655be"/><stop offset="0.96" stop-color="#4047b0"/><stop offset="1" stop-color="#333ea8"/></linearGradient><linearGradient id="Degradado_sin_nombre_7" x1="245.26" y1="51.26" x2="243.45" y2="108.54" gradientUnits="userSpaceOnUse"><stop offset="0" stop-color="#5294d5"/><stop offset="0.51" stop-color="#5094d3"/><stop offset="0.69" stop-color="#4995cd"/><stop offset="0.83" stop-color="#3e96c3"/><stop offset="0.93" stop-color="#2d98b5"/><stop offset="1" stop-color="#1d99a7"/></linearGradient><linearGradient id="Degradado_sin_nombre_12-2" x1="260.36" y1="51.81" x2="259.68" y2="76.49" xlink:href="#Degradado_sin_nombre_12"/><linearGradient id="Degradado_sin_nombre_7-2" x1="114.39" y1="103.83" x2="279.2" y2="103.83" xlink:href="#Degradado_sin_nombre_7"/><linearGradient id="Degradado_sin_nombre_86-2" x1="185.74" y1="34.25" x2="215.57" y2="34.25" xlink:href="#Degradado_sin_nombre_86"/><linearGradient id="Degradado_sin_nombre_5" x1="201.66" y1="92.11" x2="279.2" y2="92.11" gradientUnits="userSpaceOnUse"><stop offset="0" stop-color="#115157"/><stop offset="0.44" stop-color="#134e57"/><stop offset="0.72" stop-color="#1a4658"/><stop offset="0.97" stop-color="#26375a"/><stop offset="1" stop-color="#28345a"/></linearGradient><linearGradient id="Degradado_sin_nombre_86-3" x1="220.03" y1="40.61" x2="259.21" y2="40.61" xlink:href="#Degradado_sin_nombre_86"/><linearGradient id="Degradado_sin_nombre_3" x1="373.46" y1="571.28" x2="374.97" y2="467.33" gradientUnits="userSpaceOnUse"><stop offset="0" stop-color="#7eced7"/><stop offset="0.44" stop-color="#7dccd7"/><stop offset="0.6" stop-color="#7ac5d8"/><stop offset="0.72" stop-color="#74bada"/><stop offset="0.81" stop-color="#6ca9dc"/><stop offset="0.89" stop-color="#6193df"/><stop offset="0.96" stop-color="#5578e3"/><stop offset="1" stop-color="#4a62e6"/></linearGradient><linearGradient id="Degradado_sin_nombre_3-2" x1="617.76" y1="564.61" x2="617.76" y2="473.09" xlink:href="#Degradado_sin_nombre_3"/><linearGradient id="Degradado_sin_nombre_3-3" x1="166.62" y1="564.61" x2="166.62" y2="473.09" xlink:href="#Degradado_sin_nombre_3"/><linearGradient id="Degradado_sin_nombre_59-5" x1="312.17" y1="393.78" x2="459.32" y2="393.78" gradientTransform="translate(70.76 -67.04) rotate(11.55)" xlink:href="#Degradado_sin_nombre_59"/><linearGradient id="Degradado_sin_nombre_10-5" x1="351.5" y1="471.7" x2="349.99" y2="394.87" xlink:href="#Degradado_sin_nombre_10"/><linearGradient id="Degradado_sin_nombre_4" x1="422.78" y1="282.73" x2="482.42" y2="282.73" gradientUnits="userSpaceOnUse"><stop offset="0" stop-color="#365f85"/><stop offset="0.53" stop-color="#345e83"/><stop offset="0.71" stop-color="#2f5c7c"/><stop offset="0.85" stop-color="#265971"/><stop offset="0.96" stop-color="#185460"/><stop offset="1" stop-color="#115157"/></linearGradient></defs><g class="cls-1"><g id="Camada_2" data-name="Camada 2"><g id="OBJECTS"><path class="cls-2" d="M90.86,461.73H19c-19.24-20-24.39-51.83-12.9-77.09,11-24.07,34.48-40,48.73-62.25C85.21,274.85,70.51,204,111.84,165.58c20.66-19.21,50.36-24.76,78.49-27s57.19-2.18,83.19-13.12C305.6,112,329.77,83,362.81,72.11c37.09-12.25,81.46,3,103.14,35.54C479.51,128,484.63,153.53,500.67,172c25.94,29.83,71.63,32.14,104,54.85a96.69,96.69,0,0,1,40,68c3.45,32.55-8.9,69.52,10.61,95.79,9.52,12.82,25,20,35.2,32.27s13.1,23.3,9.88,38.87Z"/><path class="cls-3" d="M109.24,461.73H37.33c-19.24-20-24.38-51.83-12.89-77.09,11-24.07,34.48-40,48.73-62.25,30.41-47.54,15.71-118.37,57-156.81,20.66-19.21,50.37-24.76,78.49-27s57.19-2.18,83.2-13.12C324,112,348.15,83,381.18,72.11c37.1-12.25,81.47,3,103.15,35.54C497.89,128,503,153.53,519.05,172c25.94,29.83,71.63,32.14,104,54.85a96.69,96.69,0,0,1,40,68c3.45,32.55-8.91,69.52,10.61,95.79,9.51,12.82,24.94,20,35.2,32.27s13.09,23.3,9.88,38.87Z"/><path class="cls-4" d="M274.73,215.51l-3,.1H4.36l-.64.09C1.07,198,15,179.94,32.42,175.16c15.28-4.17,33.16-.46,46-9.8,11.47-8.37,14.32-24,21.82-36.06a51,51,0,0,1,19.09-17.93c9.75-5.24,21.91-7.07,31.91-2.34,17.71,8.41,21.11,31.87,32.95,47.5,2.64,3.5,6,6.75,10.2,7.91,3.89,1.07,8,.24,12-.48,13.09-2.3,28.79-2.09,36.93,8.41,3.83,4.95,5.2,11.29,7.32,17.15s5.6,11.92,11.48,14c2.82,1,6,1,8.5,2.68C273.58,208.22,274.55,211.79,274.73,215.51Z"/><path class="cls-5" d="M704.85,249.28H393c-2.49-3.27-2.79-8.32-1-12.21,2.3-5.09,7.11-8.56,11.9-11.43s9.89-5.55,13.48-9.84c6.88-8.22,6.48-20,8-30.64,1.79-12.6,7.07-25.07,16.59-33.52a51.73,51.73,0,0,1,12.73-8.13c13.05-6.07,29.23-7.6,41.43.06,11.68,7.32,17.41,21.24,27.59,30.53a19.15,19.15,0,0,0,8.34,4.92c9.12,2.09,16.87-6.18,23.71-12.56,9.72-9.07,22.71-15.84,35.9-14.15,15.5,2,27.48,15.31,33.36,29.79,2.46,6,4.33,12.71,9.22,17,12.54,11,33.72-1.33,48.34,6.66,5.49,3,9.16,8.47,12.09,14A101,101,0,0,1,704.85,249.28Z"/><path class="cls-6" d="M268.56,422.29H246.13v39.43H191.79V422.29H110.55V381.88L195.27,258h50.86V381.18h22.43Zm-76.77-41.11V357.5q0-6.69.48-18.05t.77-11.91h-1.53a147.57,147.57,0,0,1-10.73,20.06l-22.57,33.58Z"/><path class="cls-7" d="M253.72,422.3H231.29v39.43H177V422.3H95.71V381.89L180.43,258h50.86V381.2h22.43ZM177,381.2V357.51q0-6.69.48-18.05t.77-11.91h-1.53a147.7,147.7,0,0,1-10.73,20.07L143.37,381.2Z"/><path class="cls-8" d="M623.18,423.65l-7.81-40.36-14.57,2.82-7.45,1.44L570,266.61l-50,9.67L460.37,414,468,453.66l79.76-15.44,4.54,23.51h55.35l-6.54-33.82,7.46-1.43Zm-97.75-23L507,404.24l13.13-31,2.65-6.27a146.85,146.85,0,0,0,6.72-21.74L531,345q-.16.58,1.51,11.84c1.12,7.49,2.09,13.42,3,17.81L540,397.87Z"/><path class="cls-9" d="M608.61,426.48l-7.81-40.35-22,4.26-23.4-120.94L520,276.28l-14.57,2.82L445.8,416.81l7.67,39.67L468,453.66l65.19-12.6,4,20.67h55.35l-6-31,14.56-2.83Zm-88.45-53.22c.27,1.53.53,2.91.77,4.18l4.5,23.25-33,6.39,15.8-37.27A146.78,146.78,0,0,0,515,348.08l1.51-.29c-.11.4.39,4.36,1.51,11.84Q519.18,367.64,520.16,373.26Z"/><path class="cls-10" d="M276.15,358.4H243L221.89,204.08s-30.45-33.26-65.41-39.49l33.3-3.59,75,2Z"/><path d="M145.21,273.57s-18.85,27.59-10.49,51.28l35.08-51.28-4.56-6.12Z"/><path d="M243,358.4l-1.13,7.13s-10,1.39-10.55,15.67h26l14.13-13.79,1.32-9Z"/><path class="cls-11" d="M202.84,204l-41.58-1.55L168,266.1l-28.19,10.1-16.24-78.64a24.29,24.29,0,0,1,20.49-31.63l12.39-1.34h0c35,6.23,65.41,39.49,65.41,39.49Z"/><path class="cls-12" d="M126.27,26.25V28.1l-2.25.29a8.94,8.94,0,0,0-1.81-2.78c-3-2.59-5.1-4.63-7.26-3.39-1.62,1-1.5,5.39-1.35,7.5l-6.13.78L53.15,37.39l0-.11c3.53-.83,6.26-7.15,6.26-14.83S56.72,8.62,53.27,7.64l73,8.24V26.25Z"/><path class="cls-13" d="M57.19,11.62c-.15.23-.29.45-.42.69-.78,1.51-1.14,3.24-2.11,4.62a6.23,6.23,0,0,1-2.89,2.28,16.07,16.07,0,0,1-3.86.73,9,9,0,0,0-2.56.66c.42-7.25,3.28-12.9,6.79-13.08l1.13.12C54.78,8.07,56.14,9.51,57.19,11.62Z"/><path class="cls-14" d="M59.36,21.23s0,.05-.07.07C58.4,22.5,58,24,57.14,25.23a7,7,0,0,1-4.22,2.9c-1.57.35-3.27.16-4.71.88a4.65,4.65,0,0,0-1.76,1.65,28,28,0,0,1-1.16-8.21c0-.63,0-1.25.06-1.85a9,9,0,0,1,2.56-.66,16.07,16.07,0,0,0,3.86-.73,6.23,6.23,0,0,0,2.89-2.28c1-1.38,1.33-3.11,2.11-4.62.13-.24.27-.46.42-.69A24.21,24.21,0,0,1,59.36,21.23Z"/><path class="cls-15" d="M59.38,22.45c0,7.68-2.73,14-6.26,14.83a3,3,0,0,1-.79.11c-2.46,0-4.62-2.67-5.88-6.73A4.65,4.65,0,0,1,48.21,29c1.44-.72,3.14-.53,4.71-.88a7,7,0,0,0,4.22-2.9C58,24,58.4,22.5,59.29,21.3c0,0,0-.05.07-.07C59.37,21.63,59.38,22,59.38,22.45Z"/><path class="cls-16" d="M169.29,18.8h22a18.63,18.63,0,0,0-5.12,2.79c-.7.65-.39,1.82.46,3.32h-17.3Z"/><path class="cls-16" d="M218,22.48v2.43h-11.9a44.67,44.67,0,0,1-2.29-6.11H218Z"/><polygon class="cls-17" points="169.29 24.91 169.29 26.25 126.27 26.25 126.27 17.35 169.29 17.35 169.29 18.8 169.29 24.91"/><path class="cls-18" d="M128,41.47l-9.47,7.2S107,36.62,107.47,30.5l6.13-.78c-.15-2.11-.27-6.55,1.35-7.5,2.16-1.24,4.25.8,7.26,3.39A8.94,8.94,0,0,1,124,28.39C126.23,33.14,128,41.47,128,41.47Z"/><path class="cls-19" d="M64.25,7.7c-.63-1.39-2.68-.21-2,1.17a28,28,0,0,1-1.27,26,1.18,1.18,0,0,0,2,1.18A30.47,30.47,0,0,0,64.25,7.7Z"/><polygon class="cls-20" points="232.91 50.97 232.91 58.28 224.17 50.02 232.91 50.97"/><path class="cls-21" d="M232.91,58.28l8.8,8.31,8.4,7.93s19.24-13.47,26.71-13.59a9.39,9.39,0,0,1,1.52.1c6.59.94,10.62,8.55,9.46,15.86-1.25,7.87-1,16.58-8.6,18s-41,9.52-41,9.52L201.66,54.81l4.31-3,9.6-6.71,1.94-1.36,4.22,4L224.17,50Z"/><path class="cls-22" d="M256.51,52.5,278.34,61a9.39,9.39,0,0,0-1.52-.1c-7.47.12-26.71,13.59-26.71,13.59l-8.4-7.93Z"/><path class="cls-23" d="M279.2,94.88l-12.68,34.53L264.82,163s-1.49.27-4.07.63c-12.09,1.73-48.32,5.86-71-2.67l8.82-41.76-4.08-32.95-49.23,5.44L114.39,51.8l4.11-3.13,9.47-7.2L157.17,70l45.7-20A17.41,17.41,0,0,0,206,51.8l-4.31,3,36.56,49.59S271.62,96.31,279.2,94.88Z"/><path class="cls-24" d="M215.57,45.09,206,51.8a17.41,17.41,0,0,1-3.1-1.78c-2.16-1.55-4.72-4.11-5-7.71-.42-4.84-8.58-12.71-11.25-17.4-.85-1.5-1.16-2.67-.46-3.32a18.63,18.63,0,0,1,5.12-2.79c5.08-2,11.84-3.39,12.45-.25,0,.07,0,.16.07.25a44.67,44.67,0,0,0,2.29,6.11C209.54,33,215.57,45.09,215.57,45.09Z"/><path class="cls-25" d="M266.52,129.41c-55.94-11.86-64.86-74.6-64.86-74.6l36.56,49.63,41-9.56Z"/><path class="cls-26" d="M256.19,22c1.18-.33,2.38-.09,2.86,1.8,1.11,4.32-3.74,9.51-3.74,9.51l1.2,19.18-14.8,14.09L247.5,50,232.91,51,224.17,50l-2.44-2.31S220,31.81,220,22.48a29.87,29.87,0,0,1,.31-5.13l.08-.45c10.22,1.72,24.41-2.27,24.41-2.27s2,19.37,4.71,19.71,3.57-10.53,3.57-10.53A9.26,9.26,0,0,1,256.19,22Z"/><path class="cls-16" d="M256.3,7.93,256.19,22a9.26,9.26,0,0,0-3.08,1.8s-.85,10.86-3.57,10.53-4.71-19.71-4.71-19.71-14.19,4-24.41,2.27v0c-3.22-.52-6-1.63-7.89-3.6-7.82-8.23-5.1-12.9,6.11-10.36S253.08-8,256.3,7.93Z"/><polygon class="cls-27" points="247.5 50.02 241.71 66.59 232.91 58.28 232.91 50.97 247.5 50.02"/><path class="cls-16" d="M219.44,19.45a8.54,8.54,0,0,1,7-.41c1.44.52.35,2.65-1.08,2.13a5.88,5.88,0,0,0-4.58.28C219.38,22.14,218.07,20.14,219.44,19.45Z"/><ellipse class="cls-16" cx="241.16" cy="25.11" rx="1.72" ry="2.55" transform="translate(-0.98 12.63) rotate(-2.99)"/><path class="cls-16" d="M244.16,18.88a8.52,8.52,0,0,0-7,.32c-1.38.67-.07,2.67,1.29,2a5.86,5.86,0,0,1,4.59-.2C244.49,21.54,245.59,19.42,244.16,18.88Z"/><path class="cls-27" d="M227.58,33c.77-3.6,2.63-7.28,3.89-10.75.27-.72,1.33-.17,1.07.54-.79,2.19-1.59,4.37-2.38,6.56a14.85,14.85,0,0,0-1,2.81c-.26,2.73,1,2.51,2.4,3.17.7.32.16,1.39-.54,1.07C229.26,35.58,227.06,35.47,227.58,33Z"/><path class="cls-16" d="M226.27,25.41a7.54,7.54,0,0,0-3.81-1.67c-.88-.11-1.25,1.24-.36,1.35a6.7,6.7,0,0,1,2,.61l-2.23.73c-.85.27-.5,1.62.36,1.34L226,26.58C226.4,26.43,226.71,25.77,226.27,25.41Z"/><ellipse class="cls-28" cx="232.04" cy="43.64" rx="3.11" ry="4.49"/><path class="cls-29" d="M660.13,461.73H99.71s-30.16,20,14.68,23.41,114.75,6.59,113,21.85-42.22,12.24-42.22,39.17,186.74,20.71,186.74,20.71,105.49,1.38,120.51-16.44-42.53-34.15-32.08-41.18,86.27,14.06,97.57-3-2.26-27.87,18.58-30.13S656.62,482,660.13,461.73Z"/><ellipse class="cls-30" cx="617.76" cy="497.2" rx="42.37" ry="12.05"/><ellipse class="cls-31" cx="166.62" cy="507.62" rx="37.04" ry="9.16"/><ellipse class="cls-32" cx="378.91" cy="543.33" rx="42.06" ry="8.1"/><path class="cls-33" d="M434.54,354Q421.6,324.37,386,317.09q-3.87-.79-7.58-1.26-31.42-4-51.83,15Q303.72,352,292.85,405.29q-6.66,32.61-3.71,56.44H341q-1-13.92,5.47-45.48,7-34.12,13.83-46.1,4-7,9-9.18a12.61,12.61,0,0,1,7.81-.75q10,2.05,11.48,16.21t-5.27,47.35q-5.08,24.87-10.21,38h56.9a250.82,250.82,0,0,0,7-27q2-9.74,3.13-18.68Q445,377.93,434.54,354Z"/><path class="cls-34" d="M420,351q-11.64-26.58-41.61-35.17-3.37-1-7-1.7-36.58-7.49-59.42,13.74t-33.7,74.46Q276.09,413.16,275,423q-2.54,21.69.05,38.69h51.83c-.07-.34-.11-.67-.15-1Q325,447.15,332,413.29q7-34.12,13.84-46.09t16.82-9.93a12.25,12.25,0,0,1,6.73,3.7c2.58,2.77,4.15,6.93,4.75,12.5q1.5,14.19-5.27,47.35-5.7,27.82-11.44,40.91h57.17a255.86,255.86,0,0,0,7.92-29.93Q432.93,380.59,420,351Z"/><polygon class="cls-35" points="459.62 217.9 459.27 218.17 422.78 246.57 400 264.3 381.03 316.78 375.77 314.88 395.31 260.88 456.2 213.49 459.62 217.9"/><path class="cls-36" d="M477.11,335.69c-4.15,4.94-9.81,8.31-15.35,11.6l-.38-.66c2.2-2.81,4.51-6.1,3.86-9.61-.46-2.39-2.22-4.29-4-5.89-3.06-2.7-6.47-5-9.39-7.81s-5.39-6.4-5.87-10.43c-.61-5.31,2.25-10.32,3.37-15.55a10.48,10.48,0,0,0-.24-6.3c-1.87-4.44-7.53-5.46-12-7.25-4-1.62-7.78-4.62-8.9-8.79-1.62-6.07,2.7-12.27,2.11-18.51a12.31,12.31,0,0,0-7.51-9.92l36.49-28.4c6.19,5.36,11.53,12.47,11.6,20.58,0,5.14-2.06,10-3.54,14.95a13.31,13.31,0,0,0-.72,6.07c.57,3.1,3,5.45,5.32,7.64,4.7,4.51,9.44,10,9.36,16.52-.09,7.32-6.33,13.85-5.24,21.08.7,4.62,4.26,8.31,5.68,12.75C483.69,323.91,481.26,330.76,477.11,335.69Z"/></g></g></g></svg>