<svg width="80" height="80" viewBox="0 0 80 80" fill="none" xmlns="http://www.w3.org/2000/svg">
<circle cx="40" cy="40" r="40" fill="#1D99A7"/>
<path d="M48.0465 46.776V51H31.1185V47.64L39.7585 39.48C40.6758 38.6053 41.2945 37.8587 41.6145 37.24C41.9345 36.6 42.0945 35.9707 42.0945 35.352C42.0945 34.456 41.7852 33.7733 41.1665 33.304C40.5692 32.8133 39.6838 32.568 38.5105 32.568C37.5292 32.568 36.6438 32.76 35.8545 33.144C35.0652 33.5067 34.4038 34.0613 33.8705 34.808L30.0945 32.376C30.9692 31.0747 32.1745 30.0613 33.7105 29.336C35.2465 28.5893 37.0065 28.216 38.9905 28.216C40.6545 28.216 42.1052 28.4933 43.3425 29.048C44.6012 29.5813 45.5718 30.3493 46.2545 31.352C46.9585 32.3333 47.3105 33.496 47.3105 34.84C47.3105 36.056 47.0545 37.1973 46.5425 38.264C46.0305 39.3307 45.0385 40.5467 43.5665 41.912L38.4145 46.776H48.0465Z" fill="white"/>
</svg>
