<svg width="80" height="80" viewBox="0 0 80 80" fill="none" xmlns="http://www.w3.org/2000/svg">
<circle cx="40" cy="40" r="40" fill="#1D99A7"/>
<path d="M41.7433 37.72C43.7059 38.04 45.2099 38.776 46.2553 39.928C47.3006 41.0587 47.8233 42.4667 47.8233 44.152C47.8233 45.4533 47.4819 46.6587 46.7993 47.768C46.1166 48.856 45.0713 49.7307 43.6633 50.392C42.2766 51.0533 40.5699 51.384 38.5433 51.384C36.9646 51.384 35.4073 51.1813 33.8713 50.776C32.3566 50.3493 31.0659 49.752 29.9992 48.984L32.0153 45.016C32.8686 45.656 33.8499 46.1573 34.9593 46.52C36.0899 46.8613 37.2419 47.032 38.4153 47.032C39.7166 47.032 40.7406 46.7867 41.4873 46.296C42.2339 45.784 42.6073 45.0693 42.6073 44.152C42.6073 42.3173 41.2099 41.4 38.4153 41.4H36.0473V37.976L40.6553 32.76H31.1193V28.6H46.7993V31.96L41.7433 37.72Z" fill="white"/>
</svg>
